<?xml version="1.0" standalone="no"?>
<!DOCTYPE svg PUBLIC "-//W3C//DTD SVG 20010904//EN"
 "http://www.w3.org/TR/2001/REC-SVG-20010904/DTD/svg10.dtd">
<svg version="1.0" xmlns="http://www.w3.org/2000/svg"
 width="200.000000pt" height="200.000000pt" viewBox="0 0 200.000000 200.000000"
 preserveAspectRatio="xMidYMid meet">
<metadata>
Created by potrace 1.14, written by Peter Selinger 2001-2017
</metadata>
<g transform="translate(0.000000,200.000000) scale(0.100000,-0.100000)"
fill="#000000" stroke="none">
<path d="M888 1987 c-7 -8 -20 -48 -27 -90 l-14 -77 -41 -10 c-22 -6 -50 -15
-62 -19 -17 -8 -28 1 -73 55 -37 44 -61 64 -76 64 -38 0 -174 -82 -182 -109
-3 -14 4 -52 20 -96 l25 -72 -44 -43 -45 -44 -77 25 c-43 14 -86 23 -95 20
-21 -8 -107 -155 -107 -185 0 -13 22 -41 61 -76 l60 -55 -17 -61 -17 -62 -74
-12 c-41 -7 -81 -19 -89 -27 -19 -20 -20 -206 0 -225 7 -8 47 -19 89 -26 l76
-13 15 -54 c9 -29 16 -59 16 -67 -1 -7 -26 -33 -57 -57 -30 -25 -58 -54 -62
-65 -9 -24 84 -193 108 -198 9 -2 50 8 92 23 l75 27 46 -47 46 -46 -27 -75
c-14 -41 -25 -82 -23 -91 4 -19 156 -109 185 -109 14 0 42 22 77 61 l55 61 61
-17 61 -18 13 -71 c19 -110 14 -106 140 -106 127 0 121 -4 140 107 l13 71 61
16 61 16 55 -60 c34 -37 63 -60 76 -60 28 0 177 86 185 107 3 9 -7 51 -22 94
l-27 76 46 46 47 45 75 -27 c41 -15 82 -25 91 -24 19 5 109 157 109 186 0 14
-21 41 -61 77 l-60 55 17 61 17 61 71 13 c110 19 106 14 106 133 0 56 -4 108
-9 116 -8 12 -44 22 -136 38 -16 2 -33 8 -36 11 -11 14 -30 109 -24 123 4 8
29 32 55 54 69 56 70 68 15 164 -26 45 -54 85 -63 90 -11 6 -40 0 -93 -19
l-76 -29 -43 45 -42 44 26 78 c15 44 24 86 21 94 -7 19 -165 108 -191 108 -11
0 -43 -26 -75 -61 l-55 -62 -38 13 c-33 11 -58 17 -77 19 -4 1 -12 35 -20 78
-7 42 -20 82 -27 90 -9 9 -43 13 -112 13 -69 0 -103 -4 -112 -13z m171 -116
c5 -25 13 -60 16 -78 8 -40 19 -49 74 -58 25 -4 68 -16 97 -25 l52 -18 61 63
60 62 38 -25 c21 -14 39 -26 40 -27 2 -1 -8 -35 -22 -75 -14 -40 -25 -76 -25
-80 0 -9 152 -160 161 -160 4 0 40 11 80 25 40 13 75 22 78 20 3 -2 15 -20 26
-40 l19 -37 -62 -57 -61 -58 19 -69 c11 -38 21 -81 22 -95 6 -42 25 -57 86
-69 95 -18 98 -21 94 -73 -4 -51 -2 -49 -94 -67 -31 -6 -61 -16 -66 -23 -5 -7
-14 -39 -21 -72 -7 -33 -20 -75 -27 -94 l-14 -34 65 -64 65 -64 -26 -40 c-19
-30 -30 -39 -42 -34 -40 16 -126 45 -134 45 -6 0 -45 -35 -89 -78 l-79 -79 25
-74 c14 -40 24 -78 21 -84 -2 -6 -20 -19 -40 -30 l-37 -20 -57 61 -57 62 -108
-27 c-120 -29 -113 -22 -137 -142 l-11 -56 -45 0 c-52 0 -56 5 -74 99 -6 31
-16 61 -23 66 -9 7 -65 21 -97 24 -3 1 -29 9 -59 19 l-55 19 -57 -62 c-54 -58
-59 -61 -81 -50 -61 34 -60 32 -33 112 14 41 25 76 25 80 0 8 -151 160 -159
160 -3 0 -41 -11 -84 -24 l-78 -24 -24 39 c-14 21 -25 40 -25 42 0 2 27 25 59
52 33 26 61 55 63 64 2 9 -4 43 -13 76 -9 33 -22 79 -28 101 -10 37 -15 43
-49 49 -20 3 -58 11 -83 16 l-46 10 1 49 c0 54 -7 49 98 70 31 6 60 16 65 23
5 7 20 56 33 110 l24 98 -59 59 c-54 55 -58 61 -46 82 33 61 31 60 110 33 39
-13 78 -22 85 -19 17 6 156 145 156 154 0 8 -34 114 -45 141 -4 11 6 24 36 44
l42 27 36 -43 c62 -76 81 -91 99 -84 9 4 56 17 105 28 97 24 93 20 117 138
l11 56 49 0 49 1 10 -47z"/>
<path d="M871 1653 c-215 -44 -390 -185 -481 -386 -34 -76 -49 -141 -55 -233
l-4 -72 35 -4 c19 -2 38 -2 42 1 4 4 8 31 10 61 9 149 67 284 168 385 104 106
237 167 382 177 31 2 32 4 32 45 l0 42 -37 -2 c-20 -1 -61 -7 -92 -14z"/>
<path d="M846 1484 c-9 -8 -16 -25 -17 -37 0 -12 -2 -29 -4 -37 -1 -8 -6 -35
-9 -60 -4 -25 -9 -52 -11 -60 -2 -8 -7 -37 -10 -64 -3 -27 -12 -88 -20 -136
-8 -47 -18 -111 -21 -142 -6 -52 -5 -56 17 -64 13 -4 45 -9 72 -10 26 -1 51
-2 56 -3 4 0 -2 -45 -15 -98 -13 -54 -26 -111 -29 -128 -3 -16 -10 -46 -15
-65 -13 -45 -13 -46 6 -64 19 -20 129 -22 141 -3 18 27 263 561 263 573 0 25
-33 37 -106 40 -42 1 -77 4 -79 6 -2 1 22 79 53 171 71 209 78 197 -119 197
-112 0 -141 -3 -153 -16z m208 -115 c-8 -27 -33 -101 -54 -164 -22 -63 -40
-121 -40 -130 0 -23 30 -33 104 -34 38 0 70 -2 71 -3 3 -4 -198 -449 -201
-445 -1 1 11 61 27 132 43 195 44 211 20 224 -11 6 -46 11 -79 11 -69 0 -65
-22 -32 185 11 72 23 146 26 165 11 70 15 93 19 100 2 4 38 7 79 7 l74 1 -14
-49z"/>
<path d="M545 1042 c-3 -3 -5 -22 -5 -43 0 -33 3 -37 29 -41 43 -6 56 3 56 42
0 32 -3 35 -37 41 -21 3 -40 4 -43 1z"/>
<path d="M1388 1039 c-7 -5 -13 -24 -13 -44 -1 -35 -1 -35 42 -35 l43 0 0 39
c0 35 -3 39 -30 43 -16 3 -35 1 -42 -3z"/>
<path d="M1620 1040 c-35 -5 -36 -6 -38 -55 -10 -206 -124 -393 -297 -491 -76
-42 -176 -73 -242 -73 l-43 -1 0 -44 0 -44 48 4 c79 6 108 13 178 39 198 75
346 230 410 430 24 75 41 231 25 238 -3 2 -22 0 -41 -3z"/>
</g>
</svg>
